# xmcd
#
# Track frame offsets:
# 150
# 13826
# 31414
# 41516
# 57163
# 63780
# 74476
# 85821
# 87943
# 99787
# 110646
# 116891
# 120183
# 127997
# 131729
#
# Disc length: 1972 seconds
#
#
# Revision: 1
# Processed by: cddbd v1.5.2PL0 Copyright (c) Steve Scherf et al.
# Submitted via: FreeRIP 2.951 
#
DISCID=c407b20f
DTITLE=Prince - Prince - The Versace Experience (Prelude 2 Gold) 
DYEAR=2019
DGENRE=Pop
TTITLE0=Pussy Control (club mix edit)
TTITLE1=Shhh (x-cerpt)
TTITLE2=Get Wild In The House
TTITLE3=I Hate U (remix)
TTITLE4=319 (x-cerpt)
TTITLE5=Shy (x-cerpt)
TTITLE6=Billy Jack Bitch (edit)
TTITLE7=Sonny T. (x-cerpt)
TTITLE8=Rootie Kazootie (edit)
TTITLE9=Chatounette Control
TTITLE10=Pussy Control (control tempo edit)
TTITLE11=Kamasutra Overture #5
TTITLE12=Free The Music
TTITLE13=Segue
TTITLE14=Gold (x-cerpt)
EXTD=Audio CD (13. September 2019]\nErscheinungsdatum: 13. September 2019\nAnzahl Disks/Tonträger: 1\nLabel: Sony Music Catalog (Sony Music]\nASIN: B07VP72NND
EXTT0=
EXTT1=
EXTT2=
EXTT3=
EXTT4=
EXTT5=
EXTT6=
EXTT7=
EXTT8=
EXTT9=
EXTT10=
EXTT11=
EXTT12=
EXTT13=
EXTT14=
PLAYORDER=
